<svg xmlns="http://www.w3.org/2000/svg" width="60" height="62"><path fill="#fff" d="M30.076 41.609a10.615 10.615 0 1 1 0-21.23 10.615 10.615 0 0 1 0 21.23Zm22.533-7.673c.121-.97.212-1.941.212-2.942 0-1-.09-2.001-.212-3.033l6.399-4.943c.576-.455.728-1.274.364-1.94l-6.066-10.494a1.49 1.49 0 0 0-1.85-.668l-7.551 3.033c-1.577-1.183-3.215-2.214-5.125-2.972L37.657 1.94A1.533 1.533 0 0 0 36.141.667H24.01c-.758 0-1.395.546-1.516 1.273l-1.122 8.037c-1.911.758-3.549 1.79-5.126 2.972L8.695 9.916a1.49 1.49 0 0 0-1.85.668L.779 21.077a1.495 1.495 0 0 0 .364 1.941l6.4 4.943c-.122 1.032-.213 2.032-.213 3.033s.09 1.971.212 2.942L1.143 38.97a1.495 1.495 0 0 0-.364 1.941l6.066 10.494c.364.667 1.182.91 1.85.667l7.551-3.063c1.577 1.213 3.215 2.244 5.125 3.002l1.123 8.037a1.533 1.533 0 0 0 1.516 1.274h12.131c.758 0 1.395-.546 1.516-1.274l1.123-8.037c1.91-.788 3.548-1.79 5.125-3.002l7.551 3.063c.668.242 1.486 0 1.85-.667l6.066-10.494c.364-.667.212-1.486-.364-1.94l-6.4-5.035Z"/></svg>