<svg xmlns="http://www.w3.org/2000/svg" width="18" height="19" fill="none"><path fill="#D1D7DE" d="M8.929 5.21c-2.555 0-4.615 2.06-4.615 4.615s2.06 4.615 4.615 4.615 4.615-2.06 4.615-4.615A4.608 4.608 0 0 0 8.929 5.21Zm0 7.615c-1.651 0-3-1.345-3-3s1.345-3 3-3 3 1.345 3 3-1.35 3-3 3Zm5.88-7.804a1.074 1.074 0 0 1-1.076 1.077 1.074 1.074 0 0 1-1.077-1.077 1.077 1.077 0 0 1 2.153 0Zm3.057 1.093c-.069-1.442-.398-2.72-1.454-3.772C15.359 1.29 14.082.961 12.64.888 11.154.804 6.7.804 5.213.888c-1.437.068-2.715.398-3.771 1.45S.06 4.668-.012 6.11c-.084 1.486-.084 5.94 0 7.426.068 1.442.398 2.72 1.454 3.772 1.056 1.052 2.33 1.381 3.772 1.454 1.486.084 5.94.084 7.426 0 1.442-.069 2.72-.398 3.772-1.454 1.052-1.053 1.381-2.33 1.454-3.772.084-1.486.084-5.936 0-7.422Zm-1.92 9.017a3.038 3.038 0 0 1-1.711 1.71c-1.185.47-3.997.362-5.306.362-1.31 0-4.125.105-5.306-.361a3.038 3.038 0 0 1-1.711-1.711c-.47-1.185-.361-3.997-.361-5.306 0-1.31-.105-4.125.361-5.306a3.038 3.038 0 0 1 1.711-1.71c1.185-.47 3.996-.362 5.306-.362s4.125-.105 5.306.361c.787.313 1.393.92 1.71 1.711.47 1.185.362 3.997.362 5.306 0 1.31.109 4.125-.361 5.306Z"/></svg>