<svg width="20" height="20" fill="none" xmlns="http://www.w3.org/2000/svg"><path d="M10.005 4.872A5.12 5.12 0 0 0 4.877 10a5.12 5.12 0 0 0 5.128 5.128A5.12 5.12 0 0 0 15.131 10a5.12 5.12 0 0 0-5.127-5.128Zm0 8.462A3.34 3.34 0 0 1 6.67 10a3.337 3.337 0 0 1 3.333-3.334A3.337 3.337 0 0 1 13.338 10a3.34 3.34 0 0 1-3.333 3.334Zm6.533-8.672a1.192 1.192 0 0 1-1.196 1.196 1.193 1.193 0 0 1-1.196-1.196 1.196 1.196 0 0 1 2.392 0Zm3.396 1.214c-.076-1.602-.442-3.021-1.615-4.19C17.149.516 15.73.15 14.129.07c-1.652-.093-6.601-.093-8.253 0C4.28.146 2.86.512 1.686 1.681.512 2.851.15 4.27.07 5.871c-.093 1.652-.093 6.601 0 8.253.076 1.602.442 3.021 1.616 4.19 1.174 1.17 2.588 1.535 4.19 1.616 1.652.093 6.601.093 8.252 0 1.602-.076 3.022-.442 4.19-1.616 1.17-1.169 1.536-2.588 1.616-4.19.094-1.652.094-6.596 0-8.248Zm-2.133 10.02a3.375 3.375 0 0 1-1.901 1.9c-1.316.523-4.44.402-5.896.402-1.454 0-4.583.116-5.895-.401a3.375 3.375 0 0 1-1.901-1.902c-.522-1.316-.402-4.44-.402-5.895 0-1.455-.116-4.583.402-5.895a3.375 3.375 0 0 1 1.901-1.902c1.317-.522 4.44-.401 5.896-.401 1.454 0 4.583-.116 5.895.401A3.375 3.375 0 0 1 17.8 4.105c.522 1.316.402 4.44.402 5.895 0 1.455.12 4.583-.402 5.895Z" fill="#D1D7DE"/></svg>