<svg xmlns="http://www.w3.org/2000/svg" width="22" height="22"><path fill="#333" d="M17.875 8.938c0 1.972-.64 3.794-1.719 5.272l5.44 5.444A1.377 1.377 0 0 1 19.65 21.6l-5.44-5.444a8.886 8.886 0 0 1-5.273 1.719C4 17.875 0 13.875 0 8.937S4 0 8.938 0s8.937 4 8.937 8.938Zm-8.938 6.187c.813 0 1.618-.16 2.368-.471a6.185 6.185 0 0 0 2.008-1.341 6.185 6.185 0 0 0 1.341-2.008 6.187 6.187 0 0 0 0-4.735 6.186 6.186 0 0 0-1.341-2.008 6.186 6.186 0 0 0-2.008-1.341 6.188 6.188 0 0 0-6.743 1.341A6.187 6.187 0 0 0 3.221 6.57a6.188 6.188 0 0 0 0 4.735 6.186 6.186 0 0 0 1.341 2.008 6.186 6.186 0 0 0 2.008 1.341 6.187 6.187 0 0 0 2.368.471Z"/></svg>