<svg width="91" height="73"><path fill="#1D9D73" d="M89.9 56.2a64.35 64.35 0 0 0-44.4-17.7A64.35 64.35 0 0 0 1.1 56.2 3.78 3.78 0 0 0 0 58.9c0 1.06.42 2 1.1 2.7l9.4 9.4a3.89 3.89 0 0 0 5.35.04c3-2.81 6.4-5.16 10.09-7.02a3.78 3.78 0 0 0 2.12-3.41V48.85a55.45 55.45 0 0 1 17.44-2.77c6.07 0 11.94.95 17.44 2.73v11.76c0 1.48.87 2.8 2.13 3.41a43.65 43.65 0 0 1 10.08 7.01 3.72 3.72 0 0 0 2.66 1.07c1.06 0 2-.42 2.69-1.1l9.4-9.4a3.78 3.78 0 0 0 0-5.35Zm-9.67-39.46-5.34-5.35-13.5 13.46 5.34 5.35s13.08-13.35 13.5-13.46ZM49.3.58h-7.58v18.96h7.58V.58ZM24.27 30.2l5.34-5.35-13.46-13.5-5.38 5.39c.42.11 13.5 13.46 13.5 13.46Z"/></svg>