<svg width="91" height="73" fill="none" xmlns="http://www.w3.org/2000/svg"><path d="M89.9 56.207C78.336 45.25 62.714 38.5 45.5 38.5S12.664 45.25 1.1 56.207A3.78 3.78 0 0 0 0 58.9a3.78 3.78 0 0 0 1.1 2.692l9.403 9.404a3.78 3.78 0 0 0 2.692 1.1 3.89 3.89 0 0 0 2.654-1.063c2.996-2.805 6.408-5.156 10.086-7.014a3.777 3.777 0 0 0 2.123-3.413V48.852c5.498-1.82 11.375-2.768 17.442-2.768s11.944.948 17.442 2.73v11.755a3.82 3.82 0 0 0 2.123 3.412c3.716 1.858 7.09 4.247 10.086 7.015.682.682 1.63 1.061 2.654 1.061a3.78 3.78 0 0 0 2.692-1.1l9.403-9.403a3.78 3.78 0 0 0 1.1-2.692c0-.995-.396-1.95-1.1-2.654Zm-9.668-39.471-5.347-5.346-13.498 13.46 5.346 5.346s13.082-13.346 13.499-13.46ZM49.292.583h-7.584v18.959h7.584V.583ZM24.267 30.196l5.346-5.346-13.46-13.498-5.385 5.384c.417.114 13.499 13.46 13.499 13.46Z" fill="#1D9D73"/></svg>