<svg xmlns="http://www.w3.org/2000/svg" xmlns:xlink="http://www.w3.org/1999/xlink"><symbol id="cog">
  <path fill="#fff" d="M30.0755 41.6088a10.6146 10.6146 0 1 1 0-21.2292 10.6146 10.6146 0 0 1 0 21.2292Zm22.5334-7.6728c.1213-.9705.2123-1.941.2123-2.9418 0-1.0008-.091-2.0016-.2123-3.0328l6.3991-4.9434c.5763-.4549.7279-1.2737.364-1.9409l-6.0655-10.4934c-.364-.6672-1.1828-.9401-1.85-.6672l-7.5516 3.0328c-1.577-1.1828-3.2147-2.2139-5.1253-2.9721l-1.1222-8.0368c-.1213-.7279-.7582-1.2738-1.5163-1.2738H24.01c-.7582 0-1.395.546-1.5163 1.2738l-1.1222 8.0368c-1.9106.7582-3.5483 1.7893-5.1253 2.9721L8.6946 9.9165c-.6672-.273-1.486 0-1.85.6672L.7791 21.0771c-.3942.6672-.2123 1.486.364 1.9409l6.399 4.9434c-.1212 1.0312-.2122 2.032-.2122 3.0328s.091 1.9713.2123 2.9418L1.143 38.9703c-.5762.455-.7581 1.2738-.3639 1.941l6.0655 10.4933c.364.6673 1.1828.9099 1.85.6673l7.5516-3.0631c1.577 1.2131 3.2147 2.2442 5.1253 3.0024l1.1222 8.0368c.1213.7279.7581 1.2738 1.5163 1.2738h12.1311c.7581 0 1.395-.5459 1.5163-1.2738l1.1222-8.0368c1.9106-.7885 3.5483-1.7893 5.1253-3.0024l7.5516 3.0631c.6672.2426 1.486 0 1.85-.6673l6.0655-10.4933c.3639-.6672.2123-1.486-.364-1.941l-6.3991-5.0343Z"/>
</symbol><symbol id="facebook" viewBox="0 0 14 20">
<path d="M3.12417 11.6897V20H7.65521V11.6897H11.0345L11.738 7.86897H7.65521V6.51724C7.65521 4.50345 8.44831 3.72414 10.4966 3.72414C11.1311 3.72414 11.6414 3.74483 11.9449 3.77241V0.310345C11.3793 0.158621 10.0138 0 9.22762 0C5.04831 0 3.12417 1.97241 3.12417 6.22759V7.86897H0.551758V11.6897H3.13107H3.12417Z" fill="#D1D7DE"/>
</symbol><symbol id="headset">
  <path fill="#fff" d="M27.5.33A27.39 27.39 0 0 0 0 27.83v21.4a9.17 9.17 0 0 0 9.17 9.16h9.16V33.94H6.11v-6.1a21.39 21.39 0 1 1 42.78 0v6.1H36.67V58.4h12.22v3.05H27.5v6.12h18.33A9.17 9.17 0 0 0 55 58.39V27.83A27.44 27.44 0 0 0 27.5.33Z"/>
</symbol><symbol id="instagram" viewBox="0 0 20 20">
<path d="M10.0045 4.8722C7.16619 4.8722 4.87673 7.16166 4.87673 10C4.87673 12.8384 7.16619 15.1277 10.0045 15.1277C12.8429 15.1277 15.1324 12.8384 15.1324 9.9999C15.1324 7.16166 12.8429 4.8722 10.0045 4.8722ZM10.0045 13.3337C8.17031 13.3337 6.67085 11.8387 6.67085 9.9999C6.67085 8.16133 8.16586 6.66621 10.0045 6.66621C11.8432 6.66621 13.3383 8.16122 13.3383 9.9999C13.3383 11.8387 11.8388 13.3337 10.0045 13.3337ZM16.5381 4.66242C16.5385 4.81958 16.5078 4.97526 16.4478 5.12053C16.3878 5.2658 16.2998 5.39778 16.1886 5.50891C16.0775 5.62004 15.9455 5.70812 15.8002 5.76811C15.655 5.82809 15.4993 5.85878 15.3421 5.85843C15.185 5.8588 15.0293 5.82811 14.884 5.76814C14.7387 5.70816 14.6067 5.62008 14.4956 5.50895C14.3844 5.39782 14.2963 5.26583 14.2363 5.12056C14.1764 4.97528 14.1457 4.81959 14.146 4.66242C14.146 4.00197 14.6816 3.46641 15.3421 3.46641C16.0026 3.46641 16.5381 4.00197 16.5381 4.66242ZM19.9344 5.87632C19.8585 4.27409 19.4925 2.85496 18.3188 1.68573C17.1496 0.516504 15.7304 0.150501 14.1282 0.0701672C12.477 -0.0233891 7.52775 -0.0233891 5.8764 0.0701672C4.27872 0.146057 2.8596 0.511948 1.68582 1.68129C0.512142 2.85052 0.150695 4.26964 0.0702505 5.87187C-0.0234168 7.523 -0.0234168 12.4724 0.0702505 14.1236C0.14614 15.7257 0.512142 17.145 1.68582 18.3142C2.8596 19.4834 4.27428 19.8494 5.8764 19.9298C7.52775 20.0234 12.477 20.0234 14.1282 19.9298C15.7304 19.8539 17.1496 19.488 18.3188 18.3142C19.4881 17.145 19.8541 15.7257 19.9344 14.1236C20.0281 12.4724 20.0281 7.52755 19.9344 5.87632ZM17.8012 15.8954C17.453 16.7701 16.7791 17.444 15.8999 17.7965C14.5835 18.3186 11.4594 18.1982 10.0045 18.1982C8.54964 18.1982 5.42118 18.3142 4.10917 17.7965C3.23449 17.4484 2.5606 16.7745 2.20804 15.8954C1.68582 14.5788 1.80637 11.4548 1.80637 9.9999C1.80637 8.54511 1.69037 5.41654 2.20804 4.10453C2.55616 3.22986 3.23005 2.55596 4.10917 2.2034C5.42573 1.68118 8.54964 1.80173 10.0045 1.80173C11.4594 1.80173 14.5879 1.68573 15.8999 2.2034C16.7747 2.55152 17.4486 3.22541 17.8012 4.10453C18.3233 5.42121 18.2028 8.54511 18.2028 9.9999C18.2028 11.4548 18.3233 14.5833 17.8012 15.8954Z" fill="#D1D7DE"/>
</symbol><symbol id="laptop">
  <path fill="#fff" d="M12 6h48v30H12m48 6a6 6 0 0 0 6-6V6a6 6 0 0 0-6-6H12a6 6 0 0 0-6 6v30a6 6 0 0 0 6 6H0v6h72v-6H60Z"/>
</symbol><symbol id="lightbulb-on">
  <path fill="#fff" d="M33.333 15.333a18 18 0 0 1 18 18c0 6.66-3.63 12.48-9 15.6v5.4a3 3 0 0 1-3 3h-12a3 3 0 0 1-3-3v-5.4c-5.37-3.12-9-8.94-9-15.6a18 18 0 0 1 18-18Zm6 45v3a3 3 0 0 1-3 3h-6a3 3 0 0 1-3-3v-3h12Zm18-30h9v6h-9v-6Zm-57 0h9v6h-9v-6Zm36-30v9h-6v-9h6Zm-24.24 7.5 6.39 6.42-4.26 4.23-6.39-6.36 4.26-4.29Zm36.09 6.39 6.36-6.39 4.29 4.29-6.39 6.36-4.26-4.26Z"/>
</symbol><symbol id="linkedin">
  <path fill="#D1D7DE" d="M4.03 18H.297V5.983H4.03V18ZM2.162 4.343C.968 4.343 0 3.355 0 2.162a2.162 2.162 0 1 1 4.323 0c0 1.193-.968 2.181-2.161 2.181ZM17.996 18h-3.725v-5.85c0-1.394-.028-3.182-1.94-3.182-1.94 0-2.238 1.515-2.238 3.082V18H6.364V5.983h3.58v1.639h.052c.499-.944 1.716-1.94 3.532-1.94 3.777 0 4.472 2.486 4.472 5.717V18h-.004Z"/>
</symbol><symbol id="magnifying-glass">
  <path fill="#333" d="M17.875 8.9375c0 1.9723-.6402 3.7941-1.7188 5.2723l5.4399 5.4441c.5371.5371.5371 1.4094 0 1.9465-.5371.5371-1.4094.5371-1.9465 0l-5.4398-5.4442c-1.4782 1.0829-3.3 1.7188-5.2723 1.7188C4.0004 17.875 0 13.8746 0 8.9375S4.0004 0 8.9375 0s8.9375 4.0004 8.9375 8.9375ZM8.9375 15.125c.8125 0 1.6172-.16 2.3679-.471a6.1852 6.1852 0 0 0 2.0073-1.3413 6.1852 6.1852 0 0 0 1.3413-2.0073 6.1868 6.1868 0 0 0 0-4.7358 6.186 6.186 0 0 0-1.3413-2.0073 6.1864 6.1864 0 0 0-2.0073-1.3413 6.1876 6.1876 0 0 0-6.7431 1.3413A6.1872 6.1872 0 0 0 3.221 6.5697a6.1876 6.1876 0 0 0 0 4.7357 6.1864 6.1864 0 0 0 1.3413 2.0073 6.186 6.186 0 0 0 2.0074 1.3413 6.1866 6.1866 0 0 0 2.3678.471Z"/>
</symbol><symbol id="medium" viewBox="0 0 36 20">
<path d="M9.93333 0C4.44778 0 0 4.47444 0 10C0 15.5256 4.44667 20 9.93333 20C15.4211 20 19.8678 15.5256 19.8678 10C19.8678 4.47444 15.4211 0 9.93444 0H9.93333ZM25.8 0.583333C23.06 0.583333 20.8367 4.79889 20.8367 10C20.8367 15.2 23.06 19.4167 25.8067 19.4167C28.5522 19.4167 30.7756 15.2011 30.7756 10H30.7644C30.7644 4.8 28.5422 0.583333 25.8011 0.583333H25.8ZM33.4778 1.56333C32.5156 1.56333 31.7333 5.33889 31.7333 10C31.7333 14.6611 32.5156 18.4367 33.4778 18.4367C34.4411 18.4367 35.2222 14.6567 35.2222 10C35.2222 5.34444 34.4411 1.56333 33.4778 1.56333Z" fill="#D1D7DE"/>
</symbol><symbol id="whatsapp" viewBox="0 0 20 21">
<path d="M17.0048 3.59329C16.0871 2.66886 14.9949 1.93593 13.7916 1.43703C12.5883 0.938132 11.2979 0.683208 9.99532 0.687055C4.53163 0.687901 0.0846559 5.13403 0.0846559 10.5994C0.0846559 12.3442 0.540105 14.05 1.40613 15.5543L0 20.687L5.25459 19.308C6.70755 20.1001 8.33621 20.5146 9.99109 20.5135H9.99532C15.4556 20.5135 20 16.0673 20 10.6028C20 7.95561 18.8749 5.46842 17.0048 3.59329ZM9.99532 18.8441C8.51384 18.8441 7.06284 18.4462 5.79893 17.6961L5.50009 17.5183L2.38391 18.3344L3.21354 15.2953L3.01798 14.9821C2.19281 13.6691 1.75635 12.1493 1.75915 10.5986C1.75915 6.05763 5.45523 2.36155 10.0004 2.36155C12.2015 2.36155 14.2671 3.21911 15.8213 4.77678C17.3748 6.33445 18.3305 8.40175 18.3263 10.6028C18.3263 15.1471 14.5346 18.8441 9.99532 18.8441ZM14.5134 12.6743C14.2679 12.549 13.0489 11.9505 12.8211 11.8701C12.5934 11.7854 12.4283 11.7457 12.2633 11.9954C12.0982 12.2451 11.6249 12.7996 11.4776 12.9689C11.3346 13.134 11.1873 13.156 10.9418 13.0316C9.48654 12.3035 8.53078 11.7321 7.57162 10.0856C7.31766 9.64703 7.82559 9.6792 8.29966 8.7319C8.37924 8.56682 8.33945 8.42376 8.27681 8.29931C8.21416 8.17402 7.71808 6.95498 7.51321 6.45974C7.31258 5.9772 7.10686 6.04493 6.95533 6.03646C6.81226 6.02715 6.64718 6.02715 6.4821 6.02715C6.31702 6.02715 6.04951 6.08895 5.82179 6.33445C5.59322 6.58503 4.95576 7.1827 4.95576 8.40175C4.95576 9.62079 5.8438 10.7992 5.96401 10.9643C6.0893 11.1294 7.70961 13.6292 10.1968 14.7061C11.768 15.3833 12.3843 15.4426 13.1699 15.3258C13.6474 15.2546 14.6345 14.7281 14.8393 14.1473C15.0442 13.5666 15.0442 13.0714 14.9824 12.9689C14.924 12.8572 14.7589 12.7945 14.5134 12.6743Z" fill="#D1D7DE"/>
</symbol><symbol id="x-twitter" viewBox="0 0 23 21">
<path d="M17.5155 0.75H20.9155L13.5001 9.21923L22.2232 20.75H15.3924L10.0386 13.7577L3.93087 20.75H0.530867L8.45394 11.6885L0.100098 0.75H7.1001L11.9386 7.13462L17.5232 0.75H17.5155ZM16.3309 18.7192H18.2155L6.06933 2.67308H4.05394L16.3232 18.7192H16.3309Z" fill="#D1D7DE"/>
</symbol><symbol id="youtube">
  <path fill="#D1D7DE" d="M25.969 2.817A3.214 3.214 0 0 0 23.705.54C21.708 0 13.702 0 13.702 0S5.694 0 3.697.54a3.213 3.213 0 0 0-2.264 2.277C.9 4.828.9 9.02.9 9.02s0 4.19.534 6.201c.296 1.111 1.163 1.946 2.264 2.24 1.997.54 10.003.54 10.003.54s8.007 0 10.004-.54a3.172 3.172 0 0 0 2.264-2.24c.534-2.01.534-6.201.534-6.201s0-4.19-.534-6.202ZM11.086 12.825V5.213l6.689 3.806-6.69 3.806Z"/>
</symbol></svg>