<svg xmlns="http://www.w3.org/2000/svg" xmlns:xlink="http://www.w3.org/1999/xlink"><symbol id="angle-down">
  <path fill="#1D9D73" d="M5.7368 6.5935c-.2893 0-.481-.0977-.6726-.2894L1.0242 2.2643c-.3833-.3834-.3833-.962 0-1.3454.3833-.3833.962-.3833 1.3453 0l3.3672 3.3672L9.104.8211c.3833-.3832.962-.3832 1.3453 0 .3833.3834.3833.9621 0 1.3454L6.4095 6.3041c-.1917.0977-.3833.1954-.6727.2894Z"/>
</symbol><symbol id="check">
  <path fill="#1D9D73" d="M41.208 3.608 13.094 31.722.208 18.836l3.304-3.303 9.582 9.559L37.904.304l3.304 3.304Z"/>
</symbol><symbol id="cog">
  <path fill="#1D9D73" d="M30.0755 41.6088a10.6146 10.6146 0 1 1 0-21.2292 10.6146 10.6146 0 0 1 0 21.2292Zm22.5334-7.6728c.1213-.9705.2123-1.941.2123-2.9418 0-1.0008-.091-2.0016-.2123-3.0328l6.3991-4.9434c.5763-.4549.7279-1.2737.364-1.9409l-6.0655-10.4934c-.364-.6672-1.1828-.9401-1.85-.6672l-7.5516 3.0328c-1.577-1.1828-3.2147-2.2139-5.1253-2.9721l-1.1222-8.0368c-.1213-.7279-.7582-1.2738-1.5163-1.2738H24.01c-.7582 0-1.395.546-1.5163 1.2738l-1.1222 8.0368c-1.9106.7582-3.5483 1.7893-5.1253 2.9721L8.6946 9.9165c-.6672-.273-1.486 0-1.85.6672L.7791 21.0771c-.3942.6672-.2123 1.486.364 1.9409l6.399 4.9434c-.1212 1.0312-.2122 2.032-.2122 3.0328s.091 1.9713.2123 2.9418L1.143 38.9703c-.5762.455-.7581 1.2738-.3639 1.941l6.0655 10.4933c.364.6673 1.1828.9099 1.85.6673l7.5516-3.0631c1.577 1.2131 3.2147 2.2442 5.1253 3.0024l1.1222 8.0368c.1213.7279.7581 1.2738 1.5163 1.2738h12.1311c.7581 0 1.395-.5459 1.5163-1.2738l1.1222-8.0368c1.9106-.7885 3.5483-1.7893 5.1253-3.0024l7.5516 3.0631c.6672.2426 1.486 0 1.85-.6673l6.0655-10.4933c.3639-.6672.2123-1.486-.364-1.941l-6.3991-5.0343Z"/>
</symbol><symbol id="domain">
  <path fill="#1D9D73" d="M60.8 45.6h-7.6v7.6h7.6m0-22.8h-7.6V38h7.6m7.6 22.8H38v-7.6h7.6v-7.6H38V38h7.6v-7.6H38v-7.6h30.4m-38-7.6h-7.6V7.6h7.6m0 22.8h-7.6v-7.6h7.6m0 22.8h-7.6V38h7.6m0 22.8h-7.6v-7.6h7.6m-15.2-38H7.6V7.6h7.6m0 22.8H7.6v-7.6h7.6m0 22.8H7.6V38h7.6m0 22.8H7.6v-7.6h7.6m22.8-38V0H0v68.4h76V15.2H38Z"/>
</symbol><symbol id="facebook">
  <path fill="#D1D7DE" d="M4.53 16.95V29h6.57V16.95H16l1.02-5.54H11.1V9.45c0-2.92 1.15-4.05 4.12-4.05.92 0 1.66.03 2.1.07V.45C16.5.23 14.52 0 13.38 0 7.32 0 4.53 2.86 4.53 9.03v2.38H.8v5.54h3.74Z"/>
</symbol><symbol id="headset">
  <path fill="#1D9D73" d="M27.5.33A27.39 27.39 0 0 0 0 27.83v21.4a9.17 9.17 0 0 0 9.17 9.16h9.16V33.94H6.11v-6.1a21.39 21.39 0 1 1 42.78 0v6.1H36.67V58.4h12.22v3.05H27.5v6.12h18.33A9.17 9.17 0 0 0 55 58.39V27.83A27.44 27.44 0 0 0 27.5.33Z"/>
</symbol><symbol id="instagram">
  <path fill="#D1D7DE" d="M8.9288 5.21c-2.5545 0-4.615 2.0605-4.615 4.615s2.0605 4.6149 4.615 4.6149 4.615-2.0604 4.615-4.615c0-2.5544-2.0605-4.615-4.615-4.615Zm0 7.6153c-1.6508 0-3.0003-1.3455-3.0003-3.0004 0-1.6547 1.3455-3.0003 3.0003-3.0003 1.6548 0 3.0004 1.3455 3.0004 3.0003 0 1.6549-1.3496 3.0004-3.0004 3.0004Zm5.8802-7.8041a1.074 1.074 0 0 1-1.0764 1.0764 1.074 1.074 0 0 1-1.0765-1.0764c0-.5944.482-1.0764 1.0765-1.0764.5944 0 1.0764.482 1.0764 1.0764Zm3.0566 1.0925c-.0683-1.442-.3977-2.7192-1.454-3.7715C15.3593 1.2899 14.082.9605 12.6401.8882 11.154.804 6.6997.804 5.2135.8882c-1.4379.0683-2.7151.3976-3.7715 1.45C.3857 3.3905.0604 4.6677-.012 6.1097c-.0843 1.486-.0843 5.9404 0 7.4265.0683 1.4419.3977 2.7192 1.454 3.7715 1.0564 1.0523 2.3296 1.3817 3.7715 1.454 1.4862.0843 5.9405.0843 7.4266 0 1.4419-.0683 2.7192-.3976 3.7715-1.454 1.0523-1.0523 1.3817-2.3296 1.454-3.7715.0843-1.4861.0843-5.9364 0-7.4225Zm-1.9199 9.0171c-.3133.7872-.9198 1.3937-1.7111 1.711-1.1848.4699-3.9964.3615-5.3058.3615-1.3094 0-4.125.1044-5.3058-.3615-.7872-.3133-1.3937-.9198-1.711-1.711-.47-1.1849-.3615-3.9965-.3615-5.3059 0-1.3093-.1044-4.125.3615-5.3058.3133-.7872.9198-1.3937 1.711-1.711 1.1849-.47 3.9964-.3615 5.3058-.3615 1.3094 0 4.125-.1044 5.3058.3615.7873.3133 1.3938.9198 1.7111 1.711.4699 1.185.3615 3.9965.3615 5.3058 0 1.3094.1084 4.125-.3615 5.3059Z"/>
</symbol><symbol id="laptop">
  <path fill="#1D9D73" d="M12 6h48v30H12m48 6a6 6 0 0 0 6-6V6a6 6 0 0 0-6-6H12a6 6 0 0 0-6 6v30a6 6 0 0 0 6 6H0v6h72v-6H60Z"/>
</symbol><symbol id="lightbulb-on">
  <path fill="#1D9D73" d="M33.333 15.333a18 18 0 0 1 18 18c0 6.66-3.63 12.48-9 15.6v5.4a3 3 0 0 1-3 3h-12a3 3 0 0 1-3-3v-5.4c-5.37-3.12-9-8.94-9-15.6a18 18 0 0 1 18-18Zm6 45v3a3 3 0 0 1-3 3h-6a3 3 0 0 1-3-3v-3h12Zm18-30h9v6h-9v-6Zm-57 0h9v6h-9v-6Zm36-30v9h-6v-9h6Zm-24.24 7.5 6.39 6.42-4.26 4.23-6.39-6.36 4.26-4.29Zm36.09 6.39 6.36-6.39 4.29 4.29-6.39 6.36-4.26-4.26Z"/>
</symbol><symbol id="linkedin">
  <path fill="#D1D7DE" d="M4.03 18H.297V5.983H4.03V18ZM2.162 4.343C.968 4.343 0 3.355 0 2.162a2.162 2.162 0 1 1 4.323 0c0 1.193-.968 2.181-2.161 2.181ZM17.996 18h-3.725v-5.85c0-1.394-.028-3.182-1.94-3.182-1.94 0-2.238 1.515-2.238 3.082V18H6.364V5.983h3.58v1.639h.052c.499-.944 1.716-1.94 3.532-1.94 3.777 0 4.472 2.486 4.472 5.717V18h-.004Z"/>
</symbol><symbol id="magnifying-glass">
  <path fill="#333" d="M17.875 8.9375c0 1.9723-.6402 3.7941-1.7188 5.2723l5.4399 5.4441c.5371.5371.5371 1.4094 0 1.9465-.5371.5371-1.4094.5371-1.9465 0l-5.4398-5.4442c-1.4782 1.0829-3.3 1.7188-5.2723 1.7188C4.0004 17.875 0 13.8746 0 8.9375S4.0004 0 8.9375 0s8.9375 4.0004 8.9375 8.9375ZM8.9375 15.125c.8125 0 1.6172-.16 2.3679-.471a6.1852 6.1852 0 0 0 2.0073-1.3413 6.1852 6.1852 0 0 0 1.3413-2.0073 6.1868 6.1868 0 0 0 0-4.7358 6.186 6.186 0 0 0-1.3413-2.0073 6.1864 6.1864 0 0 0-2.0073-1.3413 6.1876 6.1876 0 0 0-6.7431 1.3413A6.1872 6.1872 0 0 0 3.221 6.5697a6.1876 6.1876 0 0 0 0 4.7357 6.1864 6.1864 0 0 0 1.3413 2.0073 6.186 6.186 0 0 0 2.0074 1.3413 6.1866 6.1866 0 0 0 2.3678.471Z"/>
</symbol><symbol id="medium">
  <path fill="#D1D7DE" d="M8.94.3C4.003.3 0 4.327 0 9.3s4.002 9 8.94 9c4.939 0 8.941-4.027 8.941-9s-4.002-9-8.94-9Zm14.28.525c-2.466 0-4.467 3.794-4.467 8.475 0 4.68 2.001 8.475 4.473 8.475 2.471 0 4.472-3.794 4.472-8.475h-.01c0-4.68-2-8.475-4.467-8.475Zm6.91.882c-.866 0-1.57 3.398-1.57 7.593s.704 7.593 1.57 7.593c.867 0 1.57-3.402 1.57-7.593 0-4.19-.703-7.593-1.57-7.593Z"/>
</symbol><symbol id="phone-ring">
  <path fill="#1D9D73" d="M89.9 56.2a64.35 64.35 0 0 0-44.4-17.7A64.35 64.35 0 0 0 1.1 56.2 3.78 3.78 0 0 0 0 58.9c0 1.06.42 2 1.1 2.7l9.4 9.4a3.89 3.89 0 0 0 5.35.04c3-2.81 6.4-5.16 10.09-7.02a3.78 3.78 0 0 0 2.12-3.41V48.85a55.45 55.45 0 0 1 17.44-2.77c6.07 0 11.94.95 17.44 2.73v11.76c0 1.48.87 2.8 2.13 3.41a43.65 43.65 0 0 1 10.08 7.01 3.72 3.72 0 0 0 2.66 1.07c1.06 0 2-.42 2.69-1.1l9.4-9.4a3.78 3.78 0 0 0 0-5.35Zm-9.67-39.46-5.34-5.35-13.5 13.46 5.34 5.35s13.08-13.35 13.5-13.46ZM49.3.58h-7.58v18.96h7.58V.58ZM24.27 30.2l5.34-5.35-13.46-13.5-5.38 5.39c.42.11 13.5 13.46 13.5 13.46Z"/>
</symbol><symbol id="web">
  <path fill="#1D9D73" d="M54.9 45.93c.3-2.5.53-5.01.53-7.6 0-2.58-.22-5.09-.53-7.6h12.85c.6 2.44.98 4.98.98 7.6 0 2.63-.38 5.17-.98 7.6M48.18 67.06a59.47 59.47 0 0 0 5.24-13.53h11.2a30.51 30.51 0 0 1-16.44 13.53Zm-.95-21.13H29.44c-.38-2.5-.6-5.01-.6-7.6 0-2.58.22-5.13.6-7.6h17.79c.34 2.47.6 5.02.6 7.6 0 2.59-.26 5.1-.6 7.6Zm-8.9 22.65a51.54 51.54 0 0 1-7.25-15.05h14.51a51.54 51.54 0 0 1-7.26 15.05Zm-15.2-45.45h-11.1A30.1 30.1 0 0 1 28.46 9.61a65.5 65.5 0 0 0-5.32 13.52Zm-11.1 30.4h11.1a65.49 65.49 0 0 0 5.32 13.53 30.43 30.43 0 0 1-16.41-13.53Zm-3.1-7.6c-.62-2.43-1-4.97-1-7.6 0-2.62.38-5.16 1-7.6h12.84c-.3 2.51-.54 5.02-.54 7.6 0 2.59.23 5.1.54 7.6M38.33 8.05a51.75 51.75 0 0 1 7.26 15.08H31.08a51.75 51.75 0 0 1 7.25-15.08Zm26.3 15.08H53.42a59.47 59.47 0 0 0-5.24-13.52c6.99 2.39 12.8 7.22 16.45 13.52ZM38.33.33a38 38 0 1 0 0 76 38 38 0 0 0 0-76Z"/>
</symbol><symbol id="whatsapp">
  <path d="M20.087 4.12a11.619 11.619 0 0 0-8.28-3.433C5.353.688.1 5.94.1 12.396c0 2.061.538 4.076 1.561 5.853L0 24.312l6.207-1.629a11.671 11.671 0 0 0 5.595 1.424h.005c6.45 0 11.818-5.252 11.818-11.707 0-3.127-1.329-6.065-3.538-8.28Zm-8.28 18.015c-1.75 0-3.464-.47-4.957-1.356l-.353-.21-3.681.964.98-3.59-.231-.37a9.698 9.698 0 0 1-1.487-5.178c0-5.364 4.366-9.73 9.735-9.73 2.6 0 5.04 1.013 6.876 2.853 1.835 1.84 2.964 4.282 2.959 6.882 0 5.368-4.478 9.735-9.84 9.735Zm5.337-7.288c-.29-.148-1.73-.855-1.999-.95-.269-.1-.464-.147-.659.148s-.754.95-.928 1.15c-.169.195-.343.221-.633.074-1.719-.86-2.848-1.535-3.981-3.48-.3-.518.3-.48.86-1.599.094-.195.047-.364-.027-.511-.074-.148-.66-1.588-.902-2.173-.237-.57-.48-.49-.659-.5-.169-.011-.364-.011-.559-.011-.195 0-.511.073-.78.363-.27.296-1.023 1.002-1.023 2.442 0 1.44 1.049 2.832 1.191 3.027.148.195 2.062 3.148 5 4.42 1.856.8 2.584.87 3.512.732.564-.084 1.73-.706 1.972-1.392.242-.686.242-1.271.169-1.392-.069-.132-.264-.206-.554-.348Z"/>
</symbol><symbol id="x-twitter">
  <path fill="#D1D7DE" d="M22.74.75h4.42l-9.64 11.01 11.34 14.99h-8.88l-6.96-9.09-7.94 9.09H.66l10.3-11.78L.1.75h9.1l6.29 8.3 7.26-8.3ZM21.2 24.11h2.45L7.86 3.25H5.24l15.95 20.86Z"/>
</symbol><symbol id="youtube">
  <path fill="#D1D7DE" d="M25.969 2.817A3.214 3.214 0 0 0 23.705.54C21.708 0 13.702 0 13.702 0S5.694 0 3.697.54a3.213 3.213 0 0 0-2.264 2.277C.9 4.828.9 9.02.9 9.02s0 4.19.534 6.201c.296 1.111 1.163 1.946 2.264 2.24 1.997.54 10.003.54 10.003.54s8.007 0 10.004-.54a3.172 3.172 0 0 0 2.264-2.24c.534-2.01.534-6.201.534-6.201s0-4.19-.534-6.202ZM11.086 12.825V5.213l6.689 3.806-6.69 3.806Z"/>
</symbol></svg>