<svg width="77" height="77" fill="none" xmlns="http://www.w3.org/2000/svg"><path d="M54.901 45.933c.304-2.508.532-5.016.532-7.6 0-2.584-.228-5.092-.532-7.6h12.844c.608 2.432.988 4.978.988 7.6s-.38 5.168-.988 7.6m-19.57 21.128c2.28-4.218 4.028-8.778 5.244-13.528h11.21c-3.648 6.27-9.462 11.134-16.454 13.528Zm-.95-21.128H29.441c-.38-2.508-.608-5.016-.608-7.6 0-2.584.228-5.13.608-7.6h17.784c.342 2.47.608 5.016.608 7.6 0 2.584-.266 5.092-.608 7.6Zm-8.892 22.648c-3.154-4.56-5.7-9.614-7.258-15.048h14.516c-1.558 5.434-4.104 10.488-7.258 15.048Zm-15.2-45.448H12.037A30.108 30.108 0 0 1 28.453 9.605c-2.28 4.218-3.99 8.778-5.32 13.528Zm-11.096 30.4h11.096c1.33 4.75 3.04 9.31 5.32 13.528-6.954-2.394-12.806-7.258-16.416-13.528Zm-3.116-7.6c-.608-2.432-.988-4.978-.988-7.6s.38-5.168.988-7.6h12.844c-.304 2.508-.532 5.016-.532 7.6 0 2.584.228 5.092.532 7.6M38.333 8.047c3.154 4.56 5.7 9.652 7.258 15.086H31.075c1.558-5.434 4.104-10.526 7.258-15.086ZM64.63 23.133H53.42c-1.216-4.75-2.964-9.31-5.244-13.528A30.35 30.35 0 0 1 64.63 23.133ZM38.333.333c-21.014 0-38 17.1-38 38a38 38 0 1 0 38-38Z" fill="#1D9D73"/></svg>