<svg xmlns="http://www.w3.org/2000/svg" width="24" height="25" fill="#D1D7DE"><path d="M20.087 4.12a11.619 11.619 0 0 0-8.28-3.433C5.353.688.1 5.94.1 12.396c0 2.061.538 4.076 1.561 5.853L0 24.312l6.207-1.629a11.671 11.671 0 0 0 5.595 1.424h.005c6.45 0 11.818-5.252 11.818-11.707 0-3.127-1.329-6.065-3.538-8.28Zm-8.28 18.015c-1.75 0-3.464-.47-4.957-1.356l-.353-.21-3.681.964.98-3.59-.231-.37a9.698 9.698 0 0 1-1.487-5.178c0-5.364 4.366-9.73 9.735-9.73 2.6 0 5.04 1.013 6.876 2.853 1.835 1.84 2.964 4.282 2.959 6.882 0 5.368-4.478 9.735-9.84 9.735Zm5.337-7.288c-.29-.148-1.73-.855-1.999-.95-.269-.1-.464-.147-.659.148s-.754.95-.928 1.15c-.169.195-.343.221-.633.074-1.719-.86-2.848-1.535-3.981-3.48-.3-.518.3-.48.86-1.599.094-.195.047-.364-.027-.511-.074-.148-.66-1.588-.902-2.173-.237-.57-.48-.49-.659-.5-.169-.011-.364-.011-.559-.011-.195 0-.511.073-.78.363-.27.296-1.023 1.002-1.023 2.442 0 1.44 1.049 2.832 1.191 3.027.148.195 2.062 3.148 5 4.42 1.856.8 2.584.87 3.512.732.564-.084 1.73-.706 1.972-1.392.242-.686.242-1.271.169-1.392-.069-.132-.264-.206-.554-.348Z"/></svg>