<svg width="20" height="21" fill="none" xmlns="http://www.w3.org/2000/svg"><path d="M17.005 3.593A9.836 9.836 0 0 0 9.995.687a9.922 9.922 0 0 0-8.59 14.867L.001 20.687l5.255-1.379a9.882 9.882 0 0 0 4.736 1.206h.004c5.46 0 10.005-4.447 10.005-9.911 0-2.647-1.125-5.135-2.995-7.01Zm-7.01 15.251A8.226 8.226 0 0 1 5.8 17.696l-.299-.178-3.116.816.83-3.039-.196-.313A8.21 8.21 0 0 1 1.759 10.6c0-4.541 3.696-8.237 8.241-8.237 2.201 0 4.267.857 5.821 2.415 1.554 1.557 2.51 3.625 2.505 5.826 0 4.544-3.791 8.241-8.33 8.241Zm4.518-6.17c-.245-.125-1.464-.723-1.692-.804-.228-.085-.393-.124-.558.125-.165.25-.638.805-.785.974-.143.165-.29.187-.536.063-1.455-.729-2.411-1.3-3.37-2.946-.254-.439.254-.407.728-1.354.08-.165.04-.308-.023-.433s-.559-1.344-.764-1.84c-.2-.482-.406-.414-.558-.423-.143-.009-.308-.009-.473-.009a.916.916 0 0 0-.66.307c-.229.251-.866.849-.866 2.068s.888 2.397 1.008 2.562c.125.165 1.746 2.665 4.233 3.742 1.571.677 2.187.737 2.973.62.477-.071 1.464-.598 1.67-1.179.204-.58.204-1.076.142-1.178-.058-.112-.223-.175-.469-.295Z" fill="#D1D7DE"/></svg>