<svg width="90" height="53" viewBox="0 0 90 53" fill="none" xmlns="http://www.w3.org/2000/svg">
<path d="M71.25 45V52.5H26.25V45C26.25 45 26.25 30 48.75 30C71.25 30 71.25 45 71.25 45ZM60 11.25C60 9.02497 59.3402 6.84989 58.104 4.99984C56.8679 3.14979 55.1109 1.70785 53.0552 0.85636C50.9995 0.00487447 48.7375 -0.217913 46.5552 0.216171C44.3729 0.650254 42.3684 1.72171 40.795 3.29505C39.2217 4.86839 38.1502 6.87295 37.7162 9.05524C37.2821 11.2375 37.5049 13.4995 38.3564 15.5552C39.2078 17.6109 40.6498 19.3679 42.4998 20.604C44.3499 21.8402 46.525 22.5 48.75 22.5C51.7337 22.5 54.5952 21.3147 56.705 19.205C58.8147 17.0952 60 14.2337 60 11.25ZM72 30.225C74.0499 32.1161 75.7025 34.3967 76.8614 36.9334C78.0204 39.4702 78.6624 42.2124 78.75 45V52.5H90V45C90 45 90 32.0625 72 30.225ZM67.5 4.28064e-06C66.367 0.00068233 65.241 0.177804 64.1625 0.525004C66.3564 3.67114 67.5327 7.41444 67.5327 11.25C67.5327 15.0856 66.3564 18.8289 64.1625 21.975C65.241 22.3222 66.367 22.4993 67.5 22.5C70.4837 22.5 73.3452 21.3147 75.455 19.205C77.5647 17.0952 78.75 14.2337 78.75 11.25C78.75 8.26632 77.5647 5.40484 75.455 3.29505C73.3452 1.18527 70.4837 4.28064e-06 67.5 4.28064e-06ZM30 18.75H18.75V7.5H11.25V18.75H0V26.25H11.25V37.5H18.75V26.25H30V18.75Z" fill="#1D9D73"/>
</svg>
