<svg width="77" height="73" viewBox="0 0 77 73" fill="none" xmlns="http://www.w3.org/2000/svg">
<path d="M30.7335 0.333496H45.9335C47.9491 0.333496 49.8822 1.13421 51.3075 2.55948C52.7328 3.98476 53.5335 5.91785 53.5335 7.9335V15.5335H68.7335C70.7491 15.5335 72.6822 16.3342 74.1075 17.7595C75.5328 19.1848 76.3335 21.1179 76.3335 23.1335V64.9335C76.3335 66.9491 75.5328 68.8822 74.1075 70.3075C72.6822 71.7328 70.7491 72.5335 68.7335 72.5335H7.9335C5.91785 72.5335 3.98476 71.7328 2.55948 70.3075C1.13421 68.8822 0.333496 66.9491 0.333496 64.9335V23.1335C0.333496 21.1179 1.13421 19.1848 2.55948 17.7595C3.98476 16.3342 5.91785 15.5335 7.9335 15.5335H23.1335V7.9335C23.1335 5.91785 23.9342 3.98476 25.3595 2.55948C26.7848 1.13421 28.7179 0.333496 30.7335 0.333496ZM45.9335 15.5335V7.9335H30.7335V15.5335H45.9335ZM32.6335 59.2335L57.6755 34.1915L52.3175 28.8335L32.6335 48.4795L24.6915 40.5755L19.3335 45.9335L32.6335 59.2335Z" fill="#1D9D73"/>
</svg>
