<svg xmlns="http://www.w3.org/2000/svg" width="60" height="62" fill="none">
  <path fill="#1D9D73" d="M30.0755 41.6088a10.6146 10.6146 0 1 1 0-21.2292 10.6146 10.6146 0 0 1 0 21.2292Zm22.5334-7.6728c.1213-.9705.2123-1.941.2123-2.9418 0-1.0008-.091-2.0016-.2123-3.0328l6.3991-4.9434c.5763-.4549.7279-1.2737.364-1.9409l-6.0655-10.4934c-.364-.6672-1.1828-.9401-1.85-.6672l-7.5516 3.0328c-1.577-1.1828-3.2147-2.2139-5.1253-2.9721l-1.1222-8.0368c-.1213-.7279-.7582-1.2738-1.5163-1.2738H24.01c-.7582 0-1.395.546-1.5163 1.2738l-1.1222 8.0368c-1.9106.7582-3.5483 1.7893-5.1253 2.9721L8.6946 9.9165c-.6672-.273-1.486 0-1.85.6672L.7791 21.0771c-.3942.6672-.2123 1.486.364 1.9409l6.399 4.9434c-.1212 1.0312-.2122 2.032-.2122 3.0328s.091 1.9713.2123 2.9418L1.143 38.9703c-.5762.455-.7581 1.2738-.3639 1.941l6.0655 10.4933c.364.6673 1.1828.9099 1.85.6673l7.5516-3.0631c1.577 1.2131 3.2147 2.2442 5.1253 3.0024l1.1222 8.0368c.1213.7279.7581 1.2738 1.5163 1.2738h12.1311c.7581 0 1.395-.5459 1.5163-1.2738l1.1222-8.0368c1.9106-.7885 3.5483-1.7893 5.1253-3.0024l7.5516 3.0631c.6672.2426 1.486 0 1.85-.6673l6.0655-10.4933c.3639-.6672.2123-1.486-.364-1.941l-6.3991-5.0343Z"/>
</svg>
