<svg width="20" height="20" viewBox="0 0 20 20" fill="none" xmlns="http://www.w3.org/2000/svg">
<path d="M10.0045 4.8722C7.16619 4.8722 4.87673 7.16166 4.87673 10C4.87673 12.8384 7.16619 15.1277 10.0045 15.1277C12.8429 15.1277 15.1324 12.8384 15.1324 9.9999C15.1324 7.16166 12.8429 4.8722 10.0045 4.8722ZM10.0045 13.3337C8.17031 13.3337 6.67085 11.8387 6.67085 9.9999C6.67085 8.16133 8.16586 6.66621 10.0045 6.66621C11.8432 6.66621 13.3383 8.16122 13.3383 9.9999C13.3383 11.8387 11.8388 13.3337 10.0045 13.3337ZM16.5381 4.66242C16.5385 4.81958 16.5078 4.97526 16.4478 5.12053C16.3878 5.2658 16.2998 5.39778 16.1886 5.50891C16.0775 5.62004 15.9455 5.70812 15.8002 5.76811C15.655 5.82809 15.4993 5.85878 15.3421 5.85843C15.185 5.8588 15.0293 5.82811 14.884 5.76814C14.7387 5.70816 14.6067 5.62008 14.4956 5.50895C14.3844 5.39782 14.2963 5.26583 14.2363 5.12056C14.1764 4.97528 14.1457 4.81959 14.146 4.66242C14.146 4.00197 14.6816 3.46641 15.3421 3.46641C16.0026 3.46641 16.5381 4.00197 16.5381 4.66242ZM19.9344 5.87632C19.8585 4.27409 19.4925 2.85496 18.3188 1.68573C17.1496 0.516504 15.7304 0.150501 14.1282 0.0701672C12.477 -0.0233891 7.52775 -0.0233891 5.8764 0.0701672C4.27872 0.146057 2.8596 0.511948 1.68582 1.68129C0.512142 2.85052 0.150695 4.26964 0.0702505 5.87187C-0.0234168 7.523 -0.0234168 12.4724 0.0702505 14.1236C0.14614 15.7257 0.512142 17.145 1.68582 18.3142C2.8596 19.4834 4.27428 19.8494 5.8764 19.9298C7.52775 20.0234 12.477 20.0234 14.1282 19.9298C15.7304 19.8539 17.1496 19.488 18.3188 18.3142C19.4881 17.145 19.8541 15.7257 19.9344 14.1236C20.0281 12.4724 20.0281 7.52755 19.9344 5.87632ZM17.8012 15.8954C17.453 16.7701 16.7791 17.444 15.8999 17.7965C14.5835 18.3186 11.4594 18.1982 10.0045 18.1982C8.54964 18.1982 5.42118 18.3142 4.10917 17.7965C3.23449 17.4484 2.5606 16.7745 2.20804 15.8954C1.68582 14.5788 1.80637 11.4548 1.80637 9.9999C1.80637 8.54511 1.69037 5.41654 2.20804 4.10453C2.55616 3.22986 3.23005 2.55596 4.10917 2.2034C5.42573 1.68118 8.54964 1.80173 10.0045 1.80173C11.4594 1.80173 14.5879 1.68573 15.8999 2.2034C16.7747 2.55152 17.4486 3.22541 17.8012 4.10453C18.3233 5.42121 18.2028 8.54511 18.2028 9.9999C18.2028 11.4548 18.3233 14.5833 17.8012 15.8954Z" fill="#D1D7DE"/>
</svg>
