<svg xmlns="http://www.w3.org/2000/svg" width="18" height="19" fill="none">
  <path fill="#D1D7DE" d="M8.9288 5.21c-2.5545 0-4.615 2.0605-4.615 4.615s2.0605 4.6149 4.615 4.6149 4.615-2.0604 4.615-4.615c0-2.5544-2.0605-4.615-4.615-4.615Zm0 7.6153c-1.6508 0-3.0003-1.3455-3.0003-3.0004 0-1.6547 1.3455-3.0003 3.0003-3.0003 1.6548 0 3.0004 1.3455 3.0004 3.0003 0 1.6549-1.3496 3.0004-3.0004 3.0004Zm5.8802-7.8041a1.074 1.074 0 0 1-1.0764 1.0764 1.074 1.074 0 0 1-1.0765-1.0764c0-.5944.482-1.0764 1.0765-1.0764.5944 0 1.0764.482 1.0764 1.0764Zm3.0566 1.0925c-.0683-1.442-.3977-2.7192-1.454-3.7715C15.3593 1.2899 14.082.9605 12.6401.8882 11.154.804 6.6997.804 5.2135.8882c-1.4379.0683-2.7151.3976-3.7715 1.45C.3857 3.3905.0604 4.6677-.012 6.1097c-.0843 1.486-.0843 5.9404 0 7.4265.0683 1.4419.3977 2.7192 1.454 3.7715 1.0564 1.0523 2.3296 1.3817 3.7715 1.454 1.4862.0843 5.9405.0843 7.4266 0 1.4419-.0683 2.7192-.3976 3.7715-1.454 1.0523-1.0523 1.3817-2.3296 1.454-3.7715.0843-1.4861.0843-5.9364 0-7.4225Zm-1.9199 9.0171c-.3133.7872-.9198 1.3937-1.7111 1.711-1.1848.4699-3.9964.3615-5.3058.3615-1.3094 0-4.125.1044-5.3058-.3615-.7872-.3133-1.3937-.9198-1.711-1.711-.47-1.1849-.3615-3.9965-.3615-5.3059 0-1.3093-.1044-4.125.3615-5.3058.3133-.7872.9198-1.3937 1.711-1.711 1.1849-.47 3.9964-.3615 5.3058-.3615 1.3094 0 4.125-.1044 5.3058.3615.7873.3133 1.3938.9198 1.7111 1.711.4699 1.185.3615 3.9965.3615 5.3058 0 1.3094.1084 4.125-.3615 5.3059Z"/>
</svg>
