<svg width="77" height="55" viewBox="0 0 77 55" fill="none" xmlns="http://www.w3.org/2000/svg">
<path d="M64.9335 19.8335H57.3335V12.2335H64.9335M64.9335 31.2335H57.3335V23.6335H64.9335M53.5335 19.8335H45.9335V12.2335H53.5335M53.5335 31.2335H45.9335V23.6335H53.5335M53.5335 46.4335H23.1335V38.8335H53.5335M19.3335 19.8335H11.7335V12.2335H19.3335M19.3335 31.2335H11.7335V23.6335H19.3335M23.1335 23.6335H30.7335V31.2335H23.1335M23.1335 12.2335H30.7335V19.8335H23.1335M34.5335 23.6335H42.1335V31.2335H34.5335M34.5335 12.2335H42.1335V19.8335H34.5335M68.7335 0.833496H7.9335C3.7155 0.833496 0.333496 4.2155 0.333496 8.4335V46.4335C0.333496 48.4491 1.13421 50.3822 2.55948 51.8075C3.98476 53.2328 5.91785 54.0335 7.9335 54.0335H68.7335C70.7491 54.0335 72.6822 53.2328 74.1075 51.8075C75.5328 50.3822 76.3335 48.4491 76.3335 46.4335V8.4335C76.3335 4.2155 72.9135 0.833496 68.7335 0.833496Z" fill="#1D9D73"/>
</svg>
