<svg width="22" height="22">
  <path fill="#333" d="M17.875 8.9375c0 1.9723-.6402 3.7941-1.7188 5.2723l5.4399 5.4441c.5371.5371.5371 1.4094 0 1.9465-.5371.5371-1.4094.5371-1.9465 0l-5.4398-5.4442c-1.4782 1.0829-3.3 1.7188-5.2723 1.7188C4.0004 17.875 0 13.8746 0 8.9375S4.0004 0 8.9375 0s8.9375 4.0004 8.9375 8.9375ZM8.9375 15.125c.8125 0 1.6172-.16 2.3679-.471a6.1852 6.1852 0 0 0 2.0073-1.3413 6.1852 6.1852 0 0 0 1.3413-2.0073 6.1868 6.1868 0 0 0 0-4.7358 6.186 6.186 0 0 0-1.3413-2.0073 6.1864 6.1864 0 0 0-2.0073-1.3413 6.1876 6.1876 0 0 0-6.7431 1.3413A6.1872 6.1872 0 0 0 3.221 6.5697a6.1876 6.1876 0 0 0 0 4.7357 6.1864 6.1864 0 0 0 1.3413 2.0073 6.186 6.186 0 0 0 2.0074 1.3413 6.1866 6.1866 0 0 0 2.3678.471Z"/>
</svg>
