<svg xmlns="http://www.w3.org/2000/svg" width="22" height="22">
    <path fill="#333" d="M17.875 8.9375c0 1.9723-.6402 3.7941-1.7188 5.2723l5.4399 5.4441c.5371.5371.5371 1.4094 0 1.9465-.5371.5371-1.4094.5371-1.9465 0l-5.4398-5.4442c-1.4782 1.0829-3.3 1.7188-5.2723 1.7188C4.00039 17.875 0 13.8746 0 8.9375 0 4.00039 4.00039 0 8.9375 0c4.9371 0 8.9375 4.00039 8.9375 8.9375ZM8.9375 15.125c.81255 0 1.6172-.16 2.3679-.471a6.1852 6.1852 0 0 0 2.0073-1.3413 6.1852 6.1852 0 0 0 1.3413-2.0073c.311-.7507.471-1.55535.471-2.3679 0-.81255-.16-1.61715-.471-2.36785a6.18604 6.18604 0 0 0-1.3413-2.00737A6.18643 6.18643 0 0 0 11.3054 3.221a6.18757 6.18757 0 0 0-6.74312 1.34128A6.18725 6.18725 0 0 0 3.221 6.56965a6.18757 6.18757 0 0 0 0 4.73575 6.18643 6.18643 0 0 0 1.34128 2.0073 6.18604 6.18604 0 0 0 2.00737 1.3413c.7507.311 1.5553.471 2.36785.471Z"/>
</svg>
