<svg width="36" height="20" viewBox="0 0 36 20" fill="none" xmlns="http://www.w3.org/2000/svg">
<path d="M9.93333 0C4.44778 0 0 4.47444 0 10C0 15.5256 4.44667 20 9.93333 20C15.4211 20 19.8678 15.5256 19.8678 10C19.8678 4.47444 15.4211 0 9.93444 0H9.93333ZM25.8 0.583333C23.06 0.583333 20.8367 4.79889 20.8367 10C20.8367 15.2 23.06 19.4167 25.8067 19.4167C28.5522 19.4167 30.7756 15.2011 30.7756 10H30.7644C30.7644 4.8 28.5422 0.583333 25.8011 0.583333H25.8ZM33.4778 1.56333C32.5156 1.56333 31.7333 5.33889 31.7333 10C31.7333 14.6611 32.5156 18.4367 33.4778 18.4367C34.4411 18.4367 35.2222 14.6567 35.2222 10C35.2222 5.34444 34.4411 1.56333 33.4778 1.56333Z" fill="#D1D7DE"/>
</svg>
