<svg xmlns="http://www.w3.org/2000/svg" width="77" height="77" fill="none">
  <path fill="#1D9D73" d="M54.9 45.93c.3-2.5.53-5.01.53-7.6 0-2.58-.22-5.09-.53-7.6h12.85c.6 2.44.98 4.98.98 7.6 0 2.63-.38 5.17-.98 7.6M48.18 67.06a59.47 59.47 0 0 0 5.24-13.53h11.2a30.51 30.51 0 0 1-16.44 13.53Zm-.95-21.13H29.44c-.38-2.5-.6-5.01-.6-7.6 0-2.58.22-5.13.6-7.6h17.79c.34 2.47.6 5.02.6 7.6 0 2.59-.26 5.1-.6 7.6Zm-8.9 22.65a51.54 51.54 0 0 1-7.25-15.05h14.51a51.54 51.54 0 0 1-7.26 15.05Zm-15.2-45.45h-11.1A30.1 30.1 0 0 1 28.46 9.61a65.5 65.5 0 0 0-5.32 13.52Zm-11.1 30.4h11.1a65.49 65.49 0 0 0 5.32 13.53 30.43 30.43 0 0 1-16.41-13.53Zm-3.1-7.6c-.62-2.43-1-4.97-1-7.6 0-2.62.38-5.16 1-7.6h12.84c-.3 2.51-.54 5.02-.54 7.6 0 2.59.23 5.1.54 7.6M38.33 8.05a51.75 51.75 0 0 1 7.26 15.08H31.08a51.75 51.75 0 0 1 7.25-15.08Zm26.3 15.08H53.42a59.47 59.47 0 0 0-5.24-13.52c6.99 2.39 12.8 7.22 16.45 13.52ZM38.33.33a38 38 0 1 0 0 76 38 38 0 0 0 0-76Z"/>
</svg>
