<svg width="20" height="21" viewBox="0 0 20 21" fill="none" xmlns="http://www.w3.org/2000/svg">
<path d="M17.0048 3.59329C16.0871 2.66886 14.9949 1.93593 13.7916 1.43703C12.5883 0.938132 11.2979 0.683208 9.99532 0.687055C4.53163 0.687901 0.0846559 5.13403 0.0846559 10.5994C0.0846559 12.3442 0.540105 14.05 1.40613 15.5543L0 20.687L5.25459 19.308C6.70755 20.1001 8.33621 20.5146 9.99109 20.5135H9.99532C15.4556 20.5135 20 16.0673 20 10.6028C20 7.95561 18.8749 5.46842 17.0048 3.59329ZM9.99532 18.8441C8.51384 18.8441 7.06284 18.4462 5.79893 17.6961L5.50009 17.5183L2.38391 18.3344L3.21354 15.2953L3.01798 14.9821C2.19281 13.6691 1.75635 12.1493 1.75915 10.5986C1.75915 6.05763 5.45523 2.36155 10.0004 2.36155C12.2015 2.36155 14.2671 3.21911 15.8213 4.77678C17.3748 6.33445 18.3305 8.40175 18.3263 10.6028C18.3263 15.1471 14.5346 18.8441 9.99532 18.8441ZM14.5134 12.6743C14.2679 12.549 13.0489 11.9505 12.8211 11.8701C12.5934 11.7854 12.4283 11.7457 12.2633 11.9954C12.0982 12.2451 11.6249 12.7996 11.4776 12.9689C11.3346 13.134 11.1873 13.156 10.9418 13.0316C9.48654 12.3035 8.53078 11.7321 7.57162 10.0856C7.31766 9.64703 7.82559 9.6792 8.29966 8.7319C8.37924 8.56682 8.33945 8.42376 8.27681 8.29931C8.21416 8.17402 7.71808 6.95498 7.51321 6.45974C7.31258 5.9772 7.10686 6.04493 6.95533 6.03646C6.81226 6.02715 6.64718 6.02715 6.4821 6.02715C6.31702 6.02715 6.04951 6.08895 5.82179 6.33445C5.59322 6.58503 4.95576 7.1827 4.95576 8.40175C4.95576 9.62079 5.8438 10.7992 5.96401 10.9643C6.0893 11.1294 7.70961 13.6292 10.1968 14.7061C11.768 15.3833 12.3843 15.4426 13.1699 15.3258C13.6474 15.2546 14.6345 14.7281 14.8393 14.1473C15.0442 13.5666 15.0442 13.0714 14.9824 12.9689C14.924 12.8572 14.7589 12.7945 14.5134 12.6743Z" fill="#D1D7DE"/>
</svg>
